<mxfile host="app.diagrams.net" modified="2023-08-28T16:05:10.101Z" agent="Mozilla/5.0 (Windows NT 10.0; Win64; x64) AppleWebKit/537.36 (KHTML, like Gecko) Chrome/116.0.0.0 Safari/537.36" etag="caz8FPvycmOTECSuHXXI" version="21.6.9" type="github">
  <diagram id="C5RBs43oDa-KdzZeNtuy" name="Page-1">
    <mxGraphModel dx="2591" dy="2205" grid="1" gridSize="10" guides="1" tooltips="1" connect="1" arrows="1" fold="1" page="1" pageScale="1" pageWidth="827" pageHeight="1169" math="0" shadow="0">
      <root>
        <mxCell id="WIyWlLk6GJQsqaUBKTNV-0" />
        <mxCell id="WIyWlLk6GJQsqaUBKTNV-1" parent="WIyWlLk6GJQsqaUBKTNV-0" />
        <mxCell id="fVlU4gWlt0pCx347TZjw-8" value="" style="edgeStyle=orthogonalEdgeStyle;rounded=0;orthogonalLoop=1;jettySize=auto;html=1;exitX=0.5;exitY=1;exitDx=0;exitDy=0;entryX=0.45;entryY=0;entryDx=0;entryDy=0;entryPerimeter=0;" edge="1" parent="WIyWlLk6GJQsqaUBKTNV-1" source="fVlU4gWlt0pCx347TZjw-26" target="fVlU4gWlt0pCx347TZjw-27">
          <mxGeometry relative="1" as="geometry">
            <mxPoint x="440" y="190" as="sourcePoint" />
            <mxPoint x="430" y="200" as="targetPoint" />
          </mxGeometry>
        </mxCell>
        <mxCell id="fVlU4gWlt0pCx347TZjw-13" value="" style="edgeStyle=orthogonalEdgeStyle;rounded=0;orthogonalLoop=1;jettySize=auto;html=1;exitX=0.5;exitY=1;exitDx=0;exitDy=0;" edge="1" parent="WIyWlLk6GJQsqaUBKTNV-1" source="fVlU4gWlt0pCx347TZjw-27">
          <mxGeometry relative="1" as="geometry">
            <mxPoint x="440" y="400" as="sourcePoint" />
            <mxPoint x="440" y="480" as="targetPoint" />
          </mxGeometry>
        </mxCell>
        <mxCell id="fVlU4gWlt0pCx347TZjw-14" value="" style="endArrow=none;html=1;rounded=0;endFill=0;" edge="1" parent="WIyWlLk6GJQsqaUBKTNV-1" target="fVlU4gWlt0pCx347TZjw-23">
          <mxGeometry width="50" height="50" relative="1" as="geometry">
            <mxPoint x="540" y="640" as="sourcePoint" />
            <mxPoint x="720" y="760" as="targetPoint" />
            <Array as="points">
              <mxPoint x="830" y="640" />
            </Array>
          </mxGeometry>
        </mxCell>
        <mxCell id="fVlU4gWlt0pCx347TZjw-15" value="" style="endArrow=classic;html=1;rounded=0;" edge="1" parent="WIyWlLk6GJQsqaUBKTNV-1">
          <mxGeometry width="50" height="50" relative="1" as="geometry">
            <mxPoint x="342" y="640" as="sourcePoint" />
            <mxPoint x="57" y="760" as="targetPoint" />
            <Array as="points">
              <mxPoint x="57" y="640" />
            </Array>
          </mxGeometry>
        </mxCell>
        <mxCell id="fVlU4gWlt0pCx347TZjw-16" value="" style="endArrow=none;html=1;rounded=0;exitX=0.5;exitY=1;exitDx=0;exitDy=0;strokeColor=default;endFill=0;" edge="1" parent="WIyWlLk6GJQsqaUBKTNV-1">
          <mxGeometry width="50" height="50" relative="1" as="geometry">
            <mxPoint x="440" y="685" as="sourcePoint" />
            <mxPoint x="439.1428571428571" y="760" as="targetPoint" />
          </mxGeometry>
        </mxCell>
        <mxCell id="fVlU4gWlt0pCx347TZjw-17" value="Tab 1 (Customer)" style="swimlane;whiteSpace=wrap;html=1;" vertex="1" parent="WIyWlLk6GJQsqaUBKTNV-1">
          <mxGeometry x="-43" y="760" width="200" height="200" as="geometry" />
        </mxCell>
        <mxCell id="fVlU4gWlt0pCx347TZjw-22" value="Tab 2 (Sight)" style="swimlane;whiteSpace=wrap;html=1;" vertex="1" parent="WIyWlLk6GJQsqaUBKTNV-1">
          <mxGeometry x="340" y="760" width="200" height="200" as="geometry" />
        </mxCell>
        <mxCell id="fVlU4gWlt0pCx347TZjw-23" value="Tab 3 (Devices)" style="swimlane;whiteSpace=wrap;html=1;" vertex="1" parent="WIyWlLk6GJQsqaUBKTNV-1">
          <mxGeometry x="730" y="750" width="200" height="200" as="geometry" />
        </mxCell>
        <mxCell id="fVlU4gWlt0pCx347TZjw-24" value="Log in&amp;nbsp;" style="text;html=1;align=center;verticalAlign=middle;resizable=0;points=[];autosize=1;strokeColor=none;fillColor=none;" vertex="1" parent="WIyWlLk6GJQsqaUBKTNV-1">
          <mxGeometry x="430" y="218" width="60" height="30" as="geometry" />
        </mxCell>
        <mxCell id="fVlU4gWlt0pCx347TZjw-25" value="Create" style="text;html=1;align=center;verticalAlign=middle;resizable=0;points=[];autosize=1;strokeColor=none;fillColor=none;" vertex="1" parent="WIyWlLk6GJQsqaUBKTNV-1">
          <mxGeometry x="430" y="428" width="60" height="30" as="geometry" />
        </mxCell>
        <mxCell id="fVlU4gWlt0pCx347TZjw-26" value="Main" style="swimlane;whiteSpace=wrap;html=1;" vertex="1" parent="WIyWlLk6GJQsqaUBKTNV-1">
          <mxGeometry x="330" y="-100" width="200" height="200" as="geometry" />
        </mxCell>
        <mxCell id="fVlU4gWlt0pCx347TZjw-27" value="Survey List" style="swimlane;whiteSpace=wrap;html=1;" vertex="1" parent="WIyWlLk6GJQsqaUBKTNV-1">
          <mxGeometry x="340" y="210" width="200" height="200" as="geometry" />
        </mxCell>
        <mxCell id="fVlU4gWlt0pCx347TZjw-28" value="Info (Tabs Controller)" style="swimlane;whiteSpace=wrap;html=1;" vertex="1" parent="WIyWlLk6GJQsqaUBKTNV-1">
          <mxGeometry x="342" y="485" width="200" height="200" as="geometry" />
        </mxCell>
        <mxCell id="fVlU4gWlt0pCx347TZjw-29" value="Log In" style="text;html=1;align=center;verticalAlign=middle;resizable=0;points=[];autosize=1;strokeColor=none;fillColor=none;" vertex="1" parent="WIyWlLk6GJQsqaUBKTNV-1">
          <mxGeometry x="422" y="138" width="60" height="30" as="geometry" />
        </mxCell>
        <mxCell id="fVlU4gWlt0pCx347TZjw-31" value="" style="endArrow=classic;startArrow=classic;html=1;rounded=0;" edge="1" parent="WIyWlLk6GJQsqaUBKTNV-1">
          <mxGeometry width="50" height="50" relative="1" as="geometry">
            <mxPoint x="160" y="880" as="sourcePoint" />
            <mxPoint x="340" y="880" as="targetPoint" />
            <Array as="points">
              <mxPoint x="240" y="880" />
            </Array>
          </mxGeometry>
        </mxCell>
        <mxCell id="fVlU4gWlt0pCx347TZjw-32" value="" style="endArrow=classic;startArrow=classic;html=1;rounded=0;" edge="1" parent="WIyWlLk6GJQsqaUBKTNV-1">
          <mxGeometry width="50" height="50" relative="1" as="geometry">
            <mxPoint x="542" y="880" as="sourcePoint" />
            <mxPoint x="730" y="880" as="targetPoint" />
            <Array as="points">
              <mxPoint x="622" y="880" />
            </Array>
          </mxGeometry>
        </mxCell>
        <mxCell id="fVlU4gWlt0pCx347TZjw-33" value="" style="endArrow=classic;html=1;rounded=0;" edge="1" parent="WIyWlLk6GJQsqaUBKTNV-1">
          <mxGeometry width="50" height="50" relative="1" as="geometry">
            <mxPoint x="860" y="750" as="sourcePoint" />
            <mxPoint x="540" y="320" as="targetPoint" />
            <Array as="points">
              <mxPoint x="860" y="320" />
            </Array>
          </mxGeometry>
        </mxCell>
        <mxCell id="fVlU4gWlt0pCx347TZjw-35" value="Customer Details" style="text;html=1;align=center;verticalAlign=middle;resizable=0;points=[];autosize=1;strokeColor=none;fillColor=none;" vertex="1" parent="WIyWlLk6GJQsqaUBKTNV-1">
          <mxGeometry x="110" y="608" width="120" height="30" as="geometry" />
        </mxCell>
        <mxCell id="fVlU4gWlt0pCx347TZjw-36" value="Validate" style="text;html=1;align=center;verticalAlign=middle;resizable=0;points=[];autosize=1;strokeColor=none;fillColor=none;" vertex="1" parent="WIyWlLk6GJQsqaUBKTNV-1">
          <mxGeometry x="205" y="845" width="70" height="30" as="geometry" />
        </mxCell>
        <mxCell id="fVlU4gWlt0pCx347TZjw-37" value="validate" style="text;html=1;align=center;verticalAlign=middle;resizable=0;points=[];autosize=1;strokeColor=none;fillColor=none;" vertex="1" parent="WIyWlLk6GJQsqaUBKTNV-1">
          <mxGeometry x="600" y="847" width="60" height="30" as="geometry" />
        </mxCell>
        <mxCell id="fVlU4gWlt0pCx347TZjw-38" value="Submit" style="text;html=1;align=center;verticalAlign=middle;resizable=0;points=[];autosize=1;strokeColor=none;fillColor=none;" vertex="1" parent="WIyWlLk6GJQsqaUBKTNV-1">
          <mxGeometry x="720" y="291" width="60" height="30" as="geometry" />
        </mxCell>
      </root>
    </mxGraphModel>
  </diagram>
</mxfile>
